<?xml version="1.0" encoding="UTF-8" standalone="no"?>
<svg
   xmlns:dc="http://purl.org/dc/elements/1.1/"
   xmlns:cc="http://creativecommons.org/ns#"
   xmlns:rdf="http://www.w3.org/1999/02/22-rdf-syntax-ns#"
   xmlns:svg="http://www.w3.org/2000/svg"
   xmlns="http://www.w3.org/2000/svg"
   xmlns:sodipodi="http://sodipodi.sourceforge.net/DTD/sodipodi-0.dtd"
   xmlns:inkscape="http://www.inkscape.org/namespaces/inkscape"
   width="4.777627in"
   height="4.7776604in"
   viewBox="0 0 1433.29 1433.2959"
   version="1.1"
   id="svg3"
   sodipodi:docname="sdsdsdsd.svg"
   inkscape:version="0.92.3 (2405546, 2018-03-11)">
  <metadata
     id="metadata9">
    <rdf:RDF>
      <cc:Work
         rdf:about="">
        <dc:format>image/svg+xml</dc:format>
        <dc:type
           rdf:resource="http://purl.org/dc/dcmitype/StillImage" />
        <dc:title></dc:title>
      </cc:Work>
    </rdf:RDF>
  </metadata>
  <defs
     id="defs7" />
  <sodipodi:namedview
     pagecolor="#ffffff"
     bordercolor="#666666"
     borderopacity="1"
     objecttolerance="10"
     gridtolerance="10"
     guidetolerance="10"
     inkscape:pageopacity="0"
     inkscape:pageshadow="2"
     inkscape:window-width="640"
     inkscape:window-height="480"
     id="namedview5"
     showgrid="false"
     fit-margin-top="0"
     fit-margin-left="0"
     fit-margin-right="0"
     fit-margin-bottom="0"
     inkscape:zoom="1.3643638"
     inkscape:cx="84.315516"
     inkscape:cy="226.2827"
     inkscape:current-layer="svg3" />
  <path
     id="path820"
     d="m 716.49501,716.50296 c 0,0 -213.29,664.70004 -213.29,664.70004 M 1423.915,716.64296 c 0,-0.01 0,0 0,0 0,390.62004 -316.66,707.28004 -707.26999,707.28004 -0.01,0 -0.01,0 -0.02,0 -390.6,-0.01 -707.2499976,-316.67 -707.2499976,-707.28004 0,0 0,-0.01 0,-0.01 0.01,-390.61 316.6699976,-707.2600044 707.2699976,-707.2600044 0,0 0.01,0 0.02,0 390.59999,0.01 707.24999,316.6600044 707.24999,707.2700044 0,0.01 0,0.02 0,0.02 0,0 0,-0.02 0,-0.02 z"
     style="fill:none;stroke:#ff0000;stroke-width:18.7500248;stroke-miterlimit:4;stroke-dasharray:none"
     inkscape:connector-curvature="0" />
</svg>
